<svg xmlns="http://www.w3.org/2000/svg" viewBox="70 12 682 527" width="682" height="527">
<g transform="translate(-1407.3733,-632.13284)"><g transform="matrix(1.0824609,0,0,0.99987578,-168.4031,9.8270868)"><path fill="#0f0f0f" d="m 1870.8583,761.43484 c -5.8978,5.8924 -11.6479,11.8876 -17.0085,18.01707 -2.0409,2.33367 -6.3213,7.63149 -6.1255,8.07662 0.2043,0.46444 6.2595,9.18422 9.0001,12.42557 9.0805,10.73958 17.0039,25.12185 29.3476,34.17031 26.5167,-27.59406 47.7528,-61.11329 87.8983,-70.24388 19.0373,-2.34047 21.5451,-2.18541 32.9846,0.81842 26.7727,7.03011 37.2846,21.18993 43.3554,29.10859 15.0984,19.69385 25.1028,94.75105 -30.2819,118.59795 l 37.7598,30.44264 17.452,12.42557 c 45.8548,-43.94589 64.558,-102.12724 48.8979,-155.4003 -4.5521,-15.48536 -10.3608,-31.00351 -22.2791,-45.51569 -4.9079,-5.97605 -12.053,-14.04757 -17.9907,-19.58341 -2.1479,-2.0025 -6.4473,-5.93261 -13.1367,-11.10136 -18.8062,-13.06181 -45.3576,-21.87944 -63.1232,-22.8571 0,0 -30.1858,-5.37033 -69.252,10.10279 -26.502,10.49671 -67.4981,50.51621 -67.4981,50.51621 z m -77.978,84.57273 c -22.8892,20.5908 -40.1484,47.1287 -69.7282,64.26133 -9.2274,5.34453 -19.0644,8.60795 -29.8686,12.07704 l 3.6204,-35.41286 c -8.445,6.56789 -19.7723,14.63557 -28.2086,21.12346 -15.9456,12.26282 -31.4122,24.81796 -47.0336,37.27671 -7.8427,6.25487 -14.4433,11.04216 -21.1601,17.09923 l 107.2636,54.96902 c -1.6301,-8.3094 -4.7601,-16.636 -7.2381,-24.8511 -0.7203,-2.38796 -1.9275,-9.73612 -1.7068,-9.67152 0.6804,-0.30991 12.3426,-3.22948 16.1858,-4.27607 12.2764,-3.34316 23.129,-8.38051 33.4891,-13.93849 25.6265,-13.74806 44.8766,-32.60908 62.7544,-51.01627 4.6913,-4.83034 19.7501,-20.04274 19.8157,-22.28716 0.035,-1.20258 -6.99,-9.66535 -9.9457,-13.04685 -9.0812,-10.38923 -16.6652,-23.16431 -28.2393,-32.30647"/><path fill="#0f0f0f" d="m 1683.8314,687.72196 c 8.1463,1.65331 21.7834,-4.91035 28.9636,-7.29475 15.7368,-5.22592 34.2245,-9.16044 51.5913,-5.62218 6.5989,1.34445 18.8103,8.04969 24.7068,2.88445 7.7559,-6.79402 -3.8749,-14.69276 -12.9404,-16.55208 -15.8518,-3.25117 -34.3197,1.83092 -47.9709,7.11019 -15.1836,5.87185 -28.3283,14.7353 -44.3504,19.47437 m -87.7957,269.01354 h 0.9051 c 16.0795,-12.64334 35.9285,-25.55098 48.876,-39.76181 -67.1704,-17.88788 -85.6637,-82.63037 -62.2788,-124.87696 14.8994,-26.91686 49.9828,-53.47518 95.7679,-44.46645 33.6037,6.61189 57.2437,28.97446 76.4134,47.57284 43.345,42.05324 75.274,89.13965 118.8272,131.08974 14.9588,14.40821 31.0681,28.23609 50.9495,39.6084 3.0276,1.73187 20.4464,8.69661 16.7753,11.63892 -4.1661,3.33903 -14.8636,-0.0164 -19.4907,-1.29914 -16.8723,-4.67744 -31.0021,-14.18076 -48.8759,-17.02042 l -0.3176,0.10559 c 29.6023,15.06243 50.5982,38.62256 92.6388,34.49956 7.999,-0.7845 15.4039,-3.0468 22.6278,-5.4051 l -4.5255,31.68523 c 7.8345,-2.6202 14.63,-9.4209 20.8175,-13.6681 15.2491,-10.46713 30.0076,-21.21893 45.2555,-31.68522 4.1411,-2.84247 19.6524,-10.50523 18.2014,-14.91068 -2.0164,-6.12201 -16.6585,-13.89451 -22.6089,-18.63836 -19.7929,-15.77961 -43.3319,-30.83943 -60.7604,-47.83843 h -0.9051 c 0.041,10.12888 1.2443,23.22824 5.4306,32.92775 -21.7627,3.55484 -48.2573,-7.78623 -64.2628,-16.65325 -45.4388,-25.17296 -66.3584,-61.43068 -97.4768,-93.9343 -1.0049,-1.04962 -2.0291,-2.11987 -3.2852,-3.03882 -10.9792,-8.0324 -11.6155,12.98599 -24.9639,3.6328 -1.3435,-0.94136 -2.553,-1.97676 -3.6065,-3.07815 -1.3258,-1.38612 -2.1386,-2.77478 -2.8138,-4.34989 9.51,6.50545 18.7238,6.24843 18.0666,-4.34895 -0.4698,-7.57528 -5.334,-15.29303 -10.8362,-21.74475 -6.0225,-7.06184 -14.4846,-15.59081 -26.2377,-18.39721 -5.2175,-1.24582 -10.2482,0.30191 -15.5406,-0.30632 -9.5205,-1.09414 -31.5214,-15.27502 -32.4303,-16.08805 -0.9089,-0.81303 -1.8102,-1.24256 -1.8102,-1.24256 0,0 -3.6362,-2.6725 -5.1269,-2.89371 -1.4906,-0.22121 -3.0191,0.40859 -3.0191,0.40859 l 2.7153,-1.24255 c 2.5147,-0.0293 31.8228,22.06899 49.7776,15.27262 17.8185,-6.7448 -0.169,-24.22781 -6.3057,-32.04714 -2.7144,-3.45859 -5.8777,-10.34328 2.693,-11.33401 7.8261,-0.90465 16.526,4.92442 21.7052,8.13127 15.601,9.65992 25.8714,23.26574 42.5534,32.07399 11.177,5.90153 27.9805,3.9027 31.2089,-6.50523 0.5571,-1.79592 0.8215,-5.81777 -3.2098,-5.81777 -7.0043,0 -8.4342,8.81401 -18.0429,8.17824 -15.4991,-1.02554 -27.9137,-16.1557 -35.6003,-24.10521 -3.5106,-3.63071 -8.16,-7.29581 -6.0347,-11.80429 8.3744,2.5354 11.8387,10.27775 20.8168,11.75014 14.0853,2.30996 5.8619,-12.98799 0.8918,-15.96679 -7.0029,-4.19719 -17.1371,-4.50131 -25.3291,-7.16533 -13.7257,-4.46365 -24.5583,-11.81263 -39.8249,-14.08133 -24.4162,-3.6284 -44.7356,5.58289 -67.8833,8.81249 -8.7074,1.21487 -21.9016,3.19569 -29.8518,-0.56042 -6.5279,-3.08409 -5.2004,-7.44855 -1.1126,-11.36707 6.7582,-6.47823 18.5888,-7.74501 26.3083,-13.16239 5.2231,-3.66544 3.2296,-9.83363 -5.3001,-8.99034 -10.791,1.06692 -20.6555,8.12933 -27.4082,13.45434 -13.7439,10.83809 -27.6943,21.52518 -41.5205,32.30647 -61.663,48.08306 -80.4638,120.07828 -58.1248,181.41329 8.4342,23.15734 22.6758,47.42754 46.4987,65.23423 M 1762.576,702.63264 c -10.0707,1.64572 -22.0171,-1.08466 -27.7741,6.83406 -4.0615,5.58654 5.2137,19.18072 -6.634,21.37996 -8.4237,1.56362 -19.7188,-3.77151 -27.1394,-5.94097 -12.8907,-3.76874 -25.8493,-5.27344 -39.8248,-4.85279 -16.9051,0.5088 -33.2008,6.7589 -46.1607,13.77456 -29.3375,15.88143 -52.1603,43.07916 -59.7373,68.20973 -1.6783,-2.95267 0.6669,-6.93751 1.7055,-9.94046 3.0088,-8.69964 7.1483,-17.32428 12.4997,-25.47241 17.0147,-25.90679 46.3733,-51.37037 89.8825,-55.64901 15.3336,-1.50788 30.0901,2.04247 45.2556,1.57333 4.2911,-0.13276 8.2414,-0.94022 11.7657,-2.65003 3.183,-1.54425 5.6852,-3.44744 8.3004,-5.40452 7.6424,-5.71933 32.6248,-14.39221 37.8609,-1.86145 m 14.4818,29.82137 4.8377,19.25963 -7.553,10.56173 c 28.52,5.35424 44.4929,31.70226 57.9278,47.83843 21.1384,25.38869 41.5881,51.01013 69.4476,73.31085 18.0768,14.46994 41.2073,27.3576 69.0336,31.06392 v -0.62127 c -30.1703,-10.90802 -51.127,-31.56602 -68.8338,-50.94483 -27.7867,-30.41053 -51.1856,-62.68595 -80.2078,-92.57048 -12.4092,-12.778 -26.1036,-28.92942 -44.6521,-37.89798 m -128.5257,175.2005 c -11.3736,-10.20824 -23.6665,-17.58221 -31.292,-29.82136 -16.3174,-26.18986 -14.4851,-61.08182 8.6677,-85.11514 10.7299,-11.13793 28.989,-22.01614 49.7776,-21.6647 21.6098,0.36532 32.7425,9.74206 50.6862,15.45192 -22.1561,-32.14801 -80.267,-42.148 -115.697,-14.91069 -47.8057,36.75137 -37.3186,119.24086 37.8575,136.05997 m 144.8177,-99.40454 -0.9051,0.62128 0.9051,-0.62128 m 102.2775,149.72809 c -13.6923,-10.16589 -25.5613,-22.45839 -40.73,-31.57015 -4.7989,-2.8827 -15.4151,-7.40718 -21.4342,-3.52343 -4.4637,2.88012 0.1812,6.13398 4.2406,7.37286 21.5058,6.5632 35.6051,23.30746 57.9236,27.72072"/></g></g>
<g transform="translate(0,377.784)"><g fill="#0f0f0f"><g
       id="g3"
       transform="translate(-1407.3733,-632.13284)"
       style="stroke-width:4.8;stroke-dasharray:none"><g
         id="g22"
         transform="matrix(1.0824609,0,0,0.99987578,-168.4031,9.8270868)"
         style="stroke:none;stroke-width:4.61384;stroke-dasharray:none" /><g
         id="g4-4"
         transform="matrix(1,0,0,1.2347232,-221.53645,-140.35505)"
         style="stroke-width:4.31973;stroke-dasharray:none" /><g
         id="g21"
         transform="matrix(1.071475,0,0,1.1599921,-130.00174,-582.98146)"
         style="stroke:none;stroke-width:4.30549;stroke-dasharray:none"><path
           style="font-size:69.7455px;line-height:85.0897px;font-family:'Adwaita Sans';-inkscape-font-specification:'Adwaita Sans, @opsz=32,wght=800';font-variation-settings:'opsz' 32, 'wght' 800;letter-spacing:0px;word-spacing:0px;stroke-linejoin:bevel;stroke-miterlimit:2.7;paint-order:stroke fill markers"
           d="m 1462.3389,1196.7301 v -50.7426 h 20.91 q 5.8916,0 10.1826,2.1115 4.291,2.0773 6.6067,5.9256 2.3499,3.8483 2.3499,9.1269 0,5.1423 -2.452,8.9225 -2.452,3.7461 -6.8792,5.7894 -4.4272,2.0093 -10.4891,2.0093 h -12.7708 v -9.6377 h 12.6346 q 2.452,0 4.2229,-0.8855 1.8049,-0.8854 2.7585,-2.486 0.9876,-1.6006 0.9876,-3.712 0,-2.1796 -0.9876,-3.7461 -0.9536,-1.6006 -2.7585,-2.4861 -1.7709,-0.8854 -4.257,-0.8854 h -7.7986 v 40.6962 z m 28.4363,0 -11.3064,-22.9874 h 12.6686 l 11.5788,22.9874 z m 17.4364,0 v -35.9625 h 11.715 v 35.9625 z m 5.8234,-39.4702 q -2.8266,0 -4.6315,-1.6687 -1.8049,-1.6688 -1.8049,-4.257 0,-2.5882 1.8049,-4.2228 1.8049,-1.6688 4.6315,-1.6688 2.8266,0 4.6316,1.6688 1.839,1.6346 1.839,4.2228 0,2.5882 -1.839,4.257 -1.805,1.6687 -4.6316,1.6687 z m 24.1453,19.9224 v 19.5478 h -11.715 v -35.9625 h 11.5788 v 9.6377 h -1.7368 q 1.6687,-4.7678 4.8358,-7.5944 3.1672,-2.8266 8.3436,-2.8266 3.9164,0 6.6749,1.7028 2.7585,1.6687 4.2229,4.8358 1.4643,3.1672 1.4643,7.5944 v 22.6128 h -11.715 v -20.1608 q 0,-3.2012 -1.5325,-4.8699 -1.5325,-1.7028 -4.3251,-1.7028 -1.839,0 -3.2352,0.7833 -1.3622,0.7832 -2.1115,2.3839 -0.7492,1.5665 -0.7492,4.0185 z m 46.077,20.4332 q -4.9721,0 -8.8204,-1.4984 -3.8482,-1.4984 -6.1299,-4.291 -2.2817,-2.7925 -2.6223,-6.6067 h 11.5448 q 0.2724,1.9752 1.7709,3.1671 1.5325,1.1579 4.0866,1.1579 2.418,0 3.7802,-0.8514 1.3622,-0.8514 1.3622,-2.2136 0,-1.1919 -1.1238,-1.9071 -1.0898,-0.7492 -3.2353,-1.1238 l -6.5046,-1.1579 q -5.3126,-0.9535 -8.1052,-3.6439 -2.7585,-2.6904 -2.7585,-6.9473 0,-3.5418 1.9071,-6.1641 1.9412,-2.6222 5.5511,-4.0526 3.6439,-1.4643 8.65,-1.4643 5.0403,0 8.7182,1.5325 3.678,1.4984 5.7213,4.2909 2.0774,2.7585 2.1796,6.6068 h -10.7956 q -0.034,-1.9071 -1.5665,-3.1331 -1.4985,-1.2601 -3.8483,-1.2601 -2.2817,0 -3.5758,0.8855 -1.2601,0.8854 -1.2601,2.2136 0,1.1238 1.0217,1.873 1.0217,0.7492 2.8607,1.0898 l 7.2197,1.3282 q 5.5851,1.0216 8.2074,3.4055 2.6563,2.3839 2.6563,6.4024 0,3.678 -2.1455,6.4706 -2.1114,2.7925 -5.9256,4.359 -3.7802,1.5325 -8.8204,1.5325 z m 38.721,-0.068 q -5.517,0 -9.7058,-2.3838 -4.1548,-2.418 -6.5046,-6.6749 -2.3157,-4.2569 -2.3157,-9.7399 0,-5.4829 2.3157,-9.7398 2.3498,-4.2569 6.4706,-6.6408 4.1207,-2.418 9.4333,-2.418 4.0526,0 7.39,1.3623 3.3375,1.3281 5.7554,3.8142 2.452,2.486 3.7801,5.8916 1.3282,3.3714 1.3282,7.4581 v 3.1672 h -32.6591 v -7.0155 h 27.1762 l -5.3808,1.4304 q 0,-2.3158 -0.8514,-3.9845 -0.8513,-1.6687 -2.4519,-2.5542 -1.5666,-0.9195 -3.7802,-0.9195 -2.2136,0 -3.8142,0.9195 -1.5666,0.8855 -2.452,2.5542 -0.8514,1.6687 -0.8514,3.9845 v 5.1764 q 0,2.3839 0.8855,4.1888 0.9195,1.7709 2.5882,2.7244 1.7027,0.9536 4.0526,0.9536 1.7368,0 3.099,-0.4768 1.3622,-0.4768 2.2817,-1.3622 0.9195,-0.8854 1.3622,-2.0433 h 10.5232 q -0.6471,3.6098 -3.1331,6.4024 -2.4861,2.7585 -6.2662,4.3591 -3.7461,1.5665 -8.2755,1.5665 z m 22.8512,-0.8173 v -50.7426 h 20.91 q 5.8916,0 10.1826,2.1115 4.291,2.0773 6.6068,5.9256 2.3498,3.8483 2.3498,9.1269 0,5.1423 -2.452,8.9225 -2.452,3.7461 -6.8792,5.7894 -4.4272,2.0093 -10.4891,2.0093 h -12.7708 v -9.6377 h 12.6346 q 2.452,0 4.2229,-0.8855 1.8049,-0.8854 2.7585,-2.486 0.9876,-1.6006 0.9876,-3.712 0,-2.1796 -0.9876,-3.7461 -0.9536,-1.6006 -2.7585,-2.4861 -1.7709,-0.8854 -4.257,-0.8854 h -7.7986 v 40.6962 z m 28.4363,0 -11.3064,-22.9874 h 12.6686 l 11.5788,22.9874 z m 32.5842,0.8173 q -5.517,0 -9.7058,-2.3838 -4.1547,-2.418 -6.5046,-6.6749 -2.3157,-4.2569 -2.3157,-9.7399 0,-5.4829 2.3157,-9.7398 2.3499,-4.2569 6.4706,-6.6408 4.1207,-2.418 9.4333,-2.418 4.0526,0 7.3901,1.3623 3.3374,1.3281 5.7553,3.8142 2.452,2.486 3.7802,5.8916 1.3281,3.3714 1.3281,7.4581 v 3.1672 h -32.6591 v -7.0155 h 27.1762 l -5.3807,1.4304 q 0,-2.3158 -0.8514,-3.9845 -0.8514,-1.6687 -2.452,-2.5542 -1.5666,-0.9195 -3.7802,-0.9195 -2.2136,0 -3.8142,0.9195 -1.5665,0.8855 -2.452,2.5542 -0.8514,1.6687 -0.8514,3.9845 v 5.1764 q 0,2.3839 0.8855,4.1888 0.9195,1.7709 2.5882,2.7244 1.7028,0.9536 4.0526,0.9536 1.7368,0 3.099,-0.4768 1.3622,-0.4768 2.2817,-1.3622 0.9195,-0.8854 1.3623,-2.0433 h 10.5231 q -0.6471,3.6098 -3.1331,6.4024 -2.4861,2.7585 -6.2662,4.3591 -3.7461,1.5665 -8.2755,1.5665 z m 22.8512,13.4179 v -50.1977 h 11.5788 v 4.6996 h 0.1703 q 1.0557,-1.839 2.5882,-3.0309 1.5325,-1.226 3.4737,-1.839 1.9752,-0.613 4.291,-0.613 4.5634,0 8.0371,2.3839 3.4736,2.3498 5.4148,6.5727 1.9752,4.2229 1.9752,9.7398 0,5.6873 -1.9412,9.9442 -1.9071,4.2229 -5.3807,6.5727 -3.4737,2.3158 -8.2074,2.3158 -2.3839,0 -4.325,-0.7152 -1.9412,-0.6811 -3.4396,-2.0433 -1.4644,-1.3622 -2.3839,-3.3715 h -0.1362 v 19.5819 z m 18.6964,-22.8172 q 2.1796,0 3.7461,-1.1238 1.5666,-1.1579 2.3839,-3.2693 0.8514,-2.1114 0.8514,-5.0743 0,-2.9287 -0.8514,-5.0061 -0.8173,-2.1115 -2.3839,-3.2353 -1.5665,-1.1238 -3.7461,-1.1238 -2.1795,0 -3.8823,1.1579 -1.6687,1.1579 -2.6223,3.2693 -0.9535,2.0774 -0.9535,4.938 0,2.8947 0.9535,5.0062 0.9536,2.1114 2.6223,3.3034 1.7028,1.1578 3.8823,1.1578 z m 40.9346,9.3993 q -5.5169,0 -9.7057,-2.3838 -4.1548,-2.418 -6.5046,-6.6749 -2.3158,-4.2569 -2.3158,-9.7399 0,-5.4829 2.3158,-9.7398 2.3498,-4.2569 6.4705,-6.6408 4.1207,-2.418 9.4333,-2.418 4.0526,0 7.3901,1.3623 3.3374,1.3281 5.7553,3.8142 2.452,2.486 3.7802,5.8916 1.3282,3.3714 1.3282,7.4581 v 3.1672 h -32.6592 v -7.0155 h 27.1762 l -5.3807,1.4304 q 0,-2.3158 -0.8514,-3.9845 -0.8514,-1.6687 -2.452,-2.5542 -1.5666,-0.9195 -3.7802,-0.9195 -2.2136,0 -3.8142,0.9195 -1.5665,0.8855 -2.4519,2.5542 -0.8514,1.6687 -0.8514,3.9845 v 5.1764 q 0,2.3839 0.8854,4.1888 0.9195,1.7709 2.5882,2.7244 1.7028,0.9536 4.0526,0.9536 1.7368,0 3.0991,-0.4768 1.3622,-0.4768 2.2817,-1.3622 0.9195,-0.8854 1.3622,-2.0433 h 10.5231 q -0.647,3.6098 -3.1331,6.4024 -2.486,2.7585 -6.2662,4.3591 -3.7461,1.5665 -8.2755,1.5665 z m 34.4506,-0.2043 q -3.6099,0 -6.4024,-1.1579 -2.7585,-1.1919 -4.3591,-3.5417 -1.5666,-2.3839 -1.5666,-5.9597 0,-3.031 1.0898,-5.0743 1.0898,-2.0774 2.9969,-3.3715 1.9411,-1.2941 4.4612,-1.9411 2.5542,-0.6812 5.4148,-0.9195 3.2012,-0.2725 5.1424,-0.579 1.9412,-0.3405 2.7925,-0.9195 0.8514,-0.613 0.8514,-1.7028 v -0.1702 q 0,-1.0898 -0.613,-1.8731 -0.613,-0.8173 -1.7368,-1.26 -1.1238,-0.4768 -2.6563,-0.4768 -1.6347,0 -2.8266,0.5108 -1.192,0.4768 -1.8731,1.3963 -0.6811,0.8854 -0.8173,2.1114 h -10.8977 q 0.2724,-3.9163 2.2817,-6.6748 2.0093,-2.7926 5.6532,-4.257 3.678,-1.4984 8.8884,-1.4984 3.9164,0 6.9133,0.8514 3.0309,0.8173 5.1083,2.452 2.0774,1.6006 3.1331,3.9504 1.0557,2.3158 1.0557,5.2786 v 24.2134 h -11.4426 v -5.0402 h -0.1362 q -1.0898,1.9412 -2.5542,3.2012 -1.4644,1.226 -3.4055,1.839 -1.9412,0.613 -4.4953,0.613 z m 3.5758,-7.6625 q 1.9411,0 3.5077,-0.7492 1.6006,-0.7492 2.5201,-2.0433 0.9195,-1.3282 0.9195,-3.0991 v -3.2693 q -0.4768,0.2044 -1.1238,0.4087 -0.6471,0.2043 -1.4644,0.3746 -0.7833,0.1703 -1.7368,0.3406 -0.9536,0.1702 -2.0434,0.3746 -1.5665,0.2383 -2.7925,0.7492 -1.192,0.5108 -1.9071,1.3622 -0.6811,0.8173 -0.6811,2.0093 0,1.1238 0.613,1.9071 0.613,0.7832 1.6687,1.226 1.0898,0.4086 2.5201,0.4086 z m 47.6435,-28.913 v 9.0587 h -25.2691 v -9.0587 z m -19.1391,-9.808 h 11.7491 v 33.6808 q 0,1.7369 0.6811,2.3839 0.6811,0.6471 2.6563,0.6471 0.8855,0 2.1796,0 1.2941,0 1.873,0 v 9.0587 q -0.9195,0 -2.7925,0 -1.8731,0 -3.8483,0 -6.4705,0 -9.5015,-2.4179 -2.9968,-2.452 -2.9968,-7.6966 z m 23.8388,45.7705 v -50.7426 h 12.2599 v 40.3216 h 22.4766 v 10.421 z m 50.436,0.613 q -3.6098,0 -6.4024,-1.1579 -2.7585,-1.1919 -4.3591,-3.5417 -1.5665,-2.3839 -1.5665,-5.9597 0,-3.031 1.0898,-5.0743 1.0897,-2.0774 2.9968,-3.3715 1.9412,-1.2941 4.4613,-1.9411 2.5541,-0.6812 5.4148,-0.9195 3.2012,-0.2725 5.1424,-0.579 1.9411,-0.3405 2.7925,-0.9195 0.8514,-0.613 0.8514,-1.7028 v -0.1702 q 0,-1.0898 -0.613,-1.8731 -0.613,-0.8173 -1.7368,-1.26 -1.1239,-0.4768 -2.6563,-0.4768 -1.6347,0 -2.8266,0.5108 -1.192,0.4768 -1.8731,1.3963 -0.6811,0.8854 -0.8173,2.1114 h -10.8978 q 0.2725,-3.9163 2.2818,-6.6748 2.0092,-2.7926 5.6532,-4.257 3.6779,-1.4984 8.8884,-1.4984 3.9164,0 6.9133,0.8514 3.0309,0.8173 5.1083,2.452 2.0774,1.6006 3.1331,3.9504 1.0557,2.3158 1.0557,5.2786 v 24.2134 h -11.4426 v -5.0402 h -0.1362 q -1.0898,1.9412 -2.5542,3.2012 -1.4644,1.226 -3.4055,1.839 -1.9412,0.613 -4.4954,0.613 z m 3.5759,-7.6625 q 1.9411,0 3.5077,-0.7492 1.6006,-0.7492 2.5201,-2.0433 0.9195,-1.3282 0.9195,-3.0991 v -3.2693 q -0.4768,0.2044 -1.1239,0.4087 -0.647,0.2043 -1.4643,0.3746 -0.7833,0.1703 -1.7369,0.3406 -0.9535,0.1702 -2.0433,0.3746 -1.5665,0.2383 -2.7925,0.7492 -1.192,0.5108 -1.9071,1.3622 -0.6812,0.8173 -0.6812,2.0093 0,1.1238 0.613,1.9071 0.613,0.7832 1.6688,1.226 1.0897,0.4086 2.5201,0.4086 z m 46.9964,7.8328 q -2.3838,0 -4.3931,-0.7152 -1.9752,-0.6811 -3.5077,-2.0774 -1.5325,-1.4303 -2.452,-3.5417 h -0.068 v 5.551 h -11.5789 v -50.7426 h 11.7151 v 19.6159 h 0.068 q 1.1579,-1.9071 2.6563,-3.133 1.4985,-1.2601 3.4056,-1.8731 1.9411,-0.613 4.2569,-0.613 4.5634,0 8.0371,2.3839 3.4736,2.3498 5.4148,6.5727 1.9752,4.2229 1.9752,9.7398 0,5.6873 -1.9412,9.9442 -1.9071,4.2229 -5.3807,6.5727 -3.4737,2.3158 -8.2074,2.3158 z m -3.3033,-9.3653 q 2.1795,0 3.7461,-1.1238 1.5665,-1.1579 2.3838,-3.2693 0.8514,-2.1114 0.8514,-5.0743 0,-2.9287 -0.8514,-5.0061 -0.8173,-2.1115 -2.3838,-3.2353 -1.5666,-1.1238 -3.7461,-1.1238 -2.1796,0 -3.8824,1.1579 -1.6687,1.1579 -2.6222,3.2693 -0.9536,2.0774 -0.9536,4.938 0,2.8947 0.9536,5.0062 0.9535,2.1114 2.6222,3.3034 1.7028,1.1578 3.8824,1.1578 z m 39.7767,9.4674 q -4.9721,0 -8.8204,-1.4984 -3.8483,-1.4984 -6.13,-4.291 -2.2817,-2.7925 -2.6222,-6.6067 h 11.5447 q 0.2725,1.9752 1.7709,3.1671 1.5325,1.1579 4.0867,1.1579 2.4179,0 3.7801,-0.8514 1.3622,-0.8514 1.3622,-2.2136 0,-1.1919 -1.1238,-1.9071 -1.0898,-0.7492 -3.2352,-1.1238 l -6.5046,-1.1579 q -5.3127,-0.9535 -8.1052,-3.6439 -2.7585,-2.6904 -2.7585,-6.9473 0,-3.5418 1.9071,-6.1641 1.9412,-2.6222 5.551,-4.0526 3.644,-1.4643 8.6501,-1.4643 5.0402,0 8.7182,1.5325 3.678,1.4984 5.7213,4.2909 2.0774,2.7585 2.1795,6.6068 h -10.7955 q -0.034,-1.9071 -1.5666,-3.1331 -1.4984,-1.2601 -3.8482,-1.2601 -2.2817,0 -3.5758,0.8855 -1.2601,0.8854 -1.2601,2.2136 0,1.1238 1.0217,1.873 1.0216,0.7492 2.8606,1.0898 l 7.2198,1.3282 q 5.5851,1.0216 8.2073,3.4055 2.6563,2.3839 2.6563,6.4024 0,3.678 -2.1454,6.4706 -2.1115,2.7925 -5.9257,4.359 -3.7801,1.5325 -8.8203,1.5325 z"
           id="text2"
           transform="scale(1.0404866,0.96108878)"
           aria-label="RinseRepeatLabs" /></g></g></g></g>
</svg>
